<svg width="33" height="33" viewBox="0 0 33 33" fill="none" xmlns="http://www.w3.org/2000/svg">
<g clip-path="url(#clip0_571_12967)">
<rect x="0.5" y="0.5" width="32" height="32" rx="16" fill="url(#paint0_radial_571_12967)"/>
<path d="M10.5469 12.8578C13.7656 9.71406 18.9906 9.71406 22.2094 12.8578L22.5969 13.2391C22.7594 13.3953 22.7594 13.6516 22.5969 13.8078L21.2719 15.1016C21.1906 15.1828 21.0594 15.1828 20.9781 15.1016L20.4469 14.5828C18.1969 12.3891 14.5594 12.3891 12.3094 14.5828L11.7406 15.1391C11.6594 15.2203 11.5281 15.2203 11.4469 15.1391L10.1219 13.8453C9.95938 13.6891 9.95938 13.4328 10.1219 13.2766L10.5469 12.8578ZM24.9531 15.5328L26.1344 16.6828C26.2969 16.8391 26.2969 17.0953 26.1344 17.2516L20.8156 22.4453C20.6531 22.6016 20.3906 22.6016 20.2344 22.4453L16.4594 18.7578C16.4219 18.7203 16.3531 18.7203 16.3156 18.7578L12.5406 22.4453C12.3781 22.6016 12.1156 22.6016 11.9594 22.4453L6.62188 17.2516C6.45937 17.0953 6.45937 16.8391 6.62188 16.6828L7.80312 15.5328C7.96562 15.3766 8.22813 15.3766 8.38438 15.5328L12.1594 19.2203C12.1969 19.2578 12.2656 19.2578 12.3031 19.2203L16.0781 15.5328C16.2406 15.3766 16.5031 15.3766 16.6594 15.5328L20.4344 19.2203C20.4719 19.2578 20.5406 19.2578 20.5781 19.2203L24.3531 15.5328C24.5281 15.3766 24.7906 15.3766 24.9531 15.5328Z" fill="white"/>
</g>
<defs>
<radialGradient id="paint0_radial_571_12967" cx="0" cy="0" r="1" gradientUnits="userSpaceOnUse" gradientTransform="translate(0.500099 16.5005) scale(32)">
<stop stop-color="#5D9DF6"/>
<stop offset="1" stop-color="#006FFF"/>
</radialGradient>
<clipPath id="clip0_571_12967">
<rect width="32" height="32" fill="white" transform="translate(0.5 0.5)"/>
</clipPath>
</defs>
</svg>
