<svg width="33" height="33" viewBox="0 0 33 33" fill="none" xmlns="http://www.w3.org/2000/svg">
<g clip-path="url(#clip0_571_12986)">
<rect x="0.5" y="0.5" width="32" height="32" rx="16" fill="white"/>
<mask id="mask0_571_12986" style="mask-type:luminance" maskUnits="userSpaceOnUse" x="0" y="0" width="33" height="33">
<path d="M32.5 0.5H0.5V32.5H32.5V0.5Z" fill="white"/>
</mask>
<g mask="url(#mask0_571_12986)">
<path d="M16.509 32.5C25.3456 32.5 32.509 25.3366 32.509 16.5C32.509 7.66344 25.3456 0.5 16.509 0.5C7.67248 0.5 0.509033 7.66344 0.509033 16.5C0.509033 25.3366 7.67248 32.5 16.509 32.5Z" fill="white"/>
<path d="M13.3472 11.2422C13.7148 10.6054 14.1419 10.3402 14.5755 10.3144C15.455 10.2563 17.4214 11.7044 16.7992 12.5644L17.9647 14.5975C18.7092 15.2215 19.4632 15.7129 20.2358 16.0393C20.0914 16.6439 20.4276 16.8606 20.7667 17.0738C20.3144 16.2819 21.2002 15.8421 21.6775 16.6278C22.1707 17.3195 22.3028 18.0373 22.0074 18.5964C21.5707 19.4337 20.3991 20.0542 19.8682 20.8333C20.9491 19.8539 22.4032 19.9639 22.9782 18.8258C23.3362 18.1211 22.441 16.0329 22.0232 15.3282C21.376 14.2453 20.5688 14.5588 20.4776 14.908C19.62 14.4392 18.8567 13.6957 18.0777 13.0749C18.442 12.7551 18.6495 12.2928 18.2507 12.0438C17.4339 11.5267 16.4853 9.9815 15.2539 9.68069C15.1313 9.65038 15.0064 9.63394 14.8824 9.63394C14.2405 9.63394 13.6129 10.0693 13.3472 11.2422Z" fill="#4E4B66"/>
<path d="M15.4488 29.6875C16.4158 29.6875 17.3583 29.5576 18.2517 29.3167C12.7519 30.7951 9.39019 24.4983 13.5704 20.0704C12.0311 19.6535 11.0418 18.1018 11.139 16.2495C2.8337 22.3396 6.77288 29.6875 15.4488 29.6875ZM18.2533 29.3162C18.2619 29.3139 18.2704 29.3117 18.2791 29.3093C18.2706 29.3115 18.2618 29.314 18.2533 29.3162ZM18.2517 29.3167C18.2524 29.3166 18.2527 29.3164 18.2533 29.3162C18.2528 29.3164 18.2522 29.3166 18.2517 29.3167Z" fill="#C19CFC"/>
<path d="M16.4758 9.56119C16.8342 9.79394 17.1701 10.1043 17.4811 10.4178C20.3931 9.781 18.5523 6.962 20.0663 5.85983C18.1534 6.52571 19.3565 9.64831 16.4758 9.56119Z" fill="#C19CFC"/>
<path d="M11.7109 11.8467L13.3474 11.2421C12.9484 7.94481 17.4844 6.60651 15.9514 3.3125C15.8855 7.04281 11.3432 7.12694 11.7109 11.8467Z" fill="#C19CFC"/>
<path d="M15.854 19.0038C16.6674 18.6288 17.4779 18.1211 18.2915 18.3603C17.3992 17.7754 16.3032 18.0566 15.1973 18.1341C13.7116 18.2375 12.2039 18.1081 11.1389 16.2495C11.5914 18.5996 13.6865 20.0026 15.854 19.0038Z" fill="#C19CFC"/>
<path d="M15.2571 7.03645C14.3303 8.27789 13.1336 9.48045 13.3472 11.2421C13.6644 9.84232 14.497 9.4932 15.254 9.68064C16.4853 9.98145 17.4339 11.5266 18.2508 12.0437C18.6495 12.2927 18.4421 12.755 18.0777 13.0749C18.8568 13.6956 19.6201 14.4391 20.4776 14.9079C20.5688 14.5588 21.3761 14.2453 22.0233 15.3282C22.4411 16.033 23.3362 18.121 22.9782 18.8258C22.4033 19.9638 20.9491 19.8539 19.8682 20.8333C19.2086 19.6115 17.8895 19.3009 16.5544 19.1039C17.0979 18.6868 17.6506 18.3119 18.2915 18.3603C17.4779 18.121 16.6674 18.6287 15.854 19.0037C13.6865 20.0025 11.5914 18.5996 11.1389 16.2494C11.0417 18.1018 12.031 19.6535 13.5703 20.0704C9.38308 24.5056 12.763 30.8158 18.279 29.3093C22.9845 28.0226 26.4556 23.6102 26.4556 18.3603C26.4556 13.7054 23.7257 9.70664 19.8244 7.9642C20.0035 8.99539 20.2296 9.99095 18.4234 11.3552C17.8548 10.8638 17.2203 10.043 16.4758 9.5612C18.1563 9.61295 18.4453 8.57195 18.7783 7.56339C17.7053 7.2127 16.5851 7.03464 15.4593 7.03464C15.3919 7.03464 15.3245 7.03526 15.2571 7.03645ZM15.1786 12.6096C15.3858 12.6515 15.5964 12.8261 15.788 13.0233C16.099 13.3433 16.3943 13.3984 16.7711 13.0621L17.9647 14.5975L16.7993 12.5643C16.7836 12.726 16.6548 12.7647 16.4979 12.755C16.2247 12.7378 15.88 12.5417 15.5184 12.5415C15.4062 12.5415 15.2924 12.5605 15.1786 12.6096ZM20.7668 17.0738C20.9585 16.7408 21.219 16.5242 21.6776 16.6278C21.5015 16.3377 21.2696 16.2147 21.07 16.2147C20.7285 16.2147 20.4814 16.5741 20.7668 17.0738Z" fill="#C19CFC"/>
<path d="M14.409 8.14206C13.7461 9.03737 13.1995 10.001 13.3472 11.2422C13.6644 9.84243 14.497 9.49324 15.254 9.68074C16.4853 9.98156 17.4339 11.5267 18.2508 12.0438C18.6495 12.2928 18.4421 12.7551 18.0777 13.075C18.8568 13.6957 19.6201 14.4392 20.4776 14.9081C20.5688 14.5589 21.3761 14.2454 22.0233 15.3282C22.4411 16.033 23.3362 18.1211 22.9782 18.8259C22.4033 19.9639 20.9491 19.854 19.8682 20.8334C19.2086 19.6116 17.8895 19.3011 16.5544 19.104C17.0979 18.6869 17.6506 18.312 18.2915 18.3604C17.4779 18.1211 16.6674 18.6288 15.854 19.0038C13.6865 20.0026 11.5914 18.5997 11.1389 16.2495C11.0417 18.1019 12.031 19.6536 13.5703 20.0705C10.8437 22.9573 11.3243 26.6392 13.5136 28.443C19.6516 29.6842 25.4315 24.8644 25.4315 18.3604C25.4315 14.3456 23.1949 10.8704 19.9312 9.17981C19.8715 9.82956 19.526 10.5246 18.4234 11.3553C17.8548 10.8639 17.2203 10.0431 16.4758 9.56131C17.5909 9.59362 18.0966 9.14762 18.4045 8.54606C17.4466 8.24081 16.4453 8.08749 15.4431 8.08749C15.098 8.08749 14.7526 8.10556 14.409 8.14206Z" fill="#202020"/>
<path d="M13.5703 20.0704C9.38308 24.5056 12.763 30.8158 18.279 29.3093C11.9683 29.5936 12.5933 22.217 16.5953 20.119C18.0339 20.3194 19.5163 20.5749 20.2296 21.8936C21.307 20.9176 22.7613 21.0241 23.3393 19.8861C23.5718 19.4305 23.2766 18.3928 22.9279 17.5262C23.0661 18.0599 23.1193 18.5511 22.9782 18.8258C22.4033 19.9638 20.9491 19.8539 19.8682 20.8333C19.2086 19.6115 17.8895 19.301 16.5544 19.1039C17.0979 18.6869 17.6506 18.3119 18.2915 18.3603C17.4779 18.121 16.6674 18.6287 15.854 19.0037C13.6865 20.0025 11.5914 18.5996 11.1389 16.2494C11.0417 18.1018 12.031 19.6535 13.5703 20.0704Z" fill="#262338"/>
<path d="M12.5717 11.5312L13.7904 11.0937C13.3916 7.79636 17.819 7.2613 16.2718 4.20654C16.2718 7.2613 12.0348 7.09486 12.5717 11.5312Z" fill="#202020"/>
</g>
</g>
<defs>
<clipPath id="clip0_571_12986">
<rect x="0.5" y="0.5" width="32" height="32" rx="16" fill="white"/>
</clipPath>
</defs>
</svg>
