<svg width="23" height="22" viewBox="0 0 23 22" fill="none" xmlns="http://www.w3.org/2000/svg">
<g clip-path="url(#clip0_2175_7979)">
<path fill-rule="evenodd" clip-rule="evenodd" d="M1.28255 2.573C0.768555 3.581 0.768555 4.901 0.768555 7.541V14.456C0.768555 17.096 0.768555 18.416 1.28255 19.424C1.73455 20.3109 2.45565 21.032 3.34255 21.484C4.35155 21.999 5.67255 21.999 8.31255 21.999H15.2266C17.8666 21.999 19.1866 21.999 20.1946 21.485C21.0815 21.033 21.8026 20.3119 22.2546 19.425C22.7696 18.416 22.7696 17.095 22.7696 14.455V7.542C22.7696 4.902 22.7696 3.582 22.2556 2.574C21.8036 1.68709 21.0825 0.965995 20.1956 0.514C19.1866 -5.96046e-08 17.8656 0 15.2256 0H8.31255C5.67255 0 4.35255 0 3.34455 0.513C2.45761 0.964939 1.73649 1.68605 1.28455 2.573H1.28255ZM14.1476 4.713C15.6546 4.797 17.0816 5.299 18.2706 6.305C19.6196 8.987 20.3326 12.005 20.4116 15.105C19.2226 16.446 17.5576 17.285 15.8126 17.285C15.8126 17.285 15.2576 16.614 14.8616 16.027C15.8916 15.776 16.8436 15.189 17.4786 14.267C16.9236 14.602 16.3686 14.937 15.8126 15.189C15.0996 15.524 14.3856 15.692 13.6726 15.859C13.0376 15.943 12.4026 16.027 11.7696 16.027C11.1346 16.027 10.4996 15.943 9.86655 15.859C9.15255 15.692 8.43855 15.524 7.72555 15.189C7.17056 14.937 6.61555 14.602 6.05956 14.267C6.69456 15.189 7.64556 15.776 8.67656 16.027C8.37672 16.4587 8.05946 16.8781 7.72555 17.284C5.98056 17.284 4.31555 16.446 3.12555 15.105C3.20555 12.005 3.91955 8.987 5.26755 6.305C6.45655 5.299 7.88355 4.797 9.39055 4.713L9.62855 4.964C8.28055 5.299 7.09056 5.97 5.98056 6.892C7.34884 6.12136 8.85935 5.63656 10.4206 5.467C10.8966 5.383 11.2936 5.383 11.7686 5.383C12.2446 5.383 12.6416 5.383 13.1176 5.467C14.6788 5.63656 16.1893 6.12136 17.5576 6.892C16.4476 5.97 15.2576 5.299 13.9096 4.964L14.1476 4.713ZM7.64655 11.92C7.64655 12.842 8.36055 13.597 9.15355 13.597C9.94655 13.597 10.6596 12.842 10.6596 11.92C10.6596 10.999 9.94655 10.244 9.15355 10.244C8.36055 10.244 7.64655 10.999 7.64655 11.92ZM12.8806 11.92C12.8806 12.842 13.5936 13.597 14.3866 13.597C15.1796 13.597 15.8936 12.842 15.8936 11.92C15.8936 10.999 15.1796 10.244 14.3866 10.244C13.5936 10.244 12.8806 10.999 12.8806 11.92Z" fill="#787878"/>
</g>
<defs>
<clipPath id="clip0_2175_7979">
<rect width="22" height="22" fill="white" transform="translate(0.768555)"/>
</clipPath>
</defs>
</svg>
