<svg width="23" height="22" viewBox="0 0 23 22" fill="none" xmlns="http://www.w3.org/2000/svg">
<g clip-path="url(#clip0_2346_20563)">
<path fill-rule="evenodd" clip-rule="evenodd" d="M11.7358 0.224487C5.67119 0.224487 0.768555 5.16326 0.768555 11.2732C0.768555 16.1572 3.90984 20.2914 8.26764 21.7546C8.81247 21.8646 9.01204 21.5169 9.01204 21.2244C9.01204 20.9682 8.99408 20.0903 8.99408 19.1755C5.94327 19.8341 5.30796 17.8584 5.30796 17.8584C4.81768 16.5779 4.09123 16.2488 4.09123 16.2488C3.0927 15.572 4.16396 15.572 4.16396 15.572C5.2716 15.6451 5.8528 16.7061 5.8528 16.7061C6.83315 18.3889 8.41288 17.9134 9.04841 17.6207C9.1391 16.9072 9.42982 16.4133 9.73849 16.139C7.30525 15.8829 4.74517 14.9317 4.74517 10.6877C4.74517 9.48043 5.18068 8.49267 5.87076 7.72447C5.76188 7.45014 5.38047 6.31579 5.97986 4.79757C5.97986 4.79757 6.90588 4.50483 8.99386 5.93169C9.8878 5.68984 10.8097 5.56681 11.7358 5.56577C12.6618 5.56577 13.6058 5.69396 14.4775 5.93169C16.5657 4.50483 17.4917 4.79757 17.4917 4.79757C18.0911 6.31579 17.7094 7.45014 17.6006 7.72447C18.3088 8.49267 18.7264 9.48043 18.7264 10.6877C18.7264 14.9317 16.1663 15.8645 13.7149 16.139C14.1145 16.4865 14.4593 17.145 14.4593 18.1877C14.4593 19.6693 14.4413 20.8585 14.4413 21.2242C14.4413 21.5169 14.6411 21.8646 15.1857 21.7549C19.5435 20.2912 22.6848 16.1572 22.6848 11.2732C22.7028 5.16326 17.7822 0.224487 11.7358 0.224487Z" fill="#787878"/>
</g>
<defs>
<clipPath id="clip0_2346_20563">
<rect width="22" height="21.551" fill="white" transform="translate(0.768555 0.224487)"/>
</clipPath>
</defs>
</svg>
