<svg width="85" height="18" viewBox="0 0 85 18" fill="none" xmlns="http://www.w3.org/2000/svg">
<path d="M2.27056 17.2517H5.77525V8.77252L0.768555 5.00398V15.7502C0.768555 16.5746 1.44593 17.2517 2.27056 17.2517Z" fill="#4285F4"/>
<path d="M17.7617 17.2517H21.2664C22.091 17.2517 22.7684 16.5746 22.7684 15.7502V5.00398L17.7617 8.74308" fill="#34A853"/>
<path d="M17.7617 2.26591V8.77252L22.7684 5.03343V3.00195C22.7684 1.14713 20.6479 0.0872267 19.1754 1.20601" fill="#FBBC04"/>
<path d="M5.77539 8.77257V2.26596L11.7834 6.77054L17.762 2.26596V8.77257L11.754 13.2477" fill="#EA4335"/>
<path d="M0.768555 3.00198V5.00401L5.77525 8.7431V2.26593L4.36159 1.20603C2.88904 0.116692 0.768555 1.17659 0.768555 3.00198Z" fill="#C5221F"/>
<path d="M46.5272 9.62857C46.5272 11.7893 45.8984 13.5571 44.6016 14.8536C43.1475 16.3857 41.2219 17.1714 38.864 17.1714C36.5847 17.1714 34.6984 16.3857 33.1265 14.8143C31.5545 13.2429 30.7686 11.3179 30.7686 9C30.7686 6.72142 31.5545 4.75714 33.1265 3.18571C34.6984 1.61428 36.624 0.828568 38.864 0.828568C40.0037 0.828568 41.104 1.025 42.1258 1.45714C43.1475 1.85 43.9728 2.43928 44.6409 3.18571L43.1868 4.63928C42.7153 4.05 42.0865 3.61785 41.3398 3.26428C40.5931 2.95 39.7679 2.79285 38.9033 2.79285C37.2135 2.79285 35.7594 3.38214 34.5805 4.56071C33.4015 5.73928 32.8514 7.23214 32.8514 9.03928C32.8514 10.8464 33.4408 12.3 34.5805 13.5179C35.7594 14.6964 37.2135 15.2857 38.9033 15.2857C40.4752 15.2857 41.7328 14.8536 42.7938 13.9893C43.8156 13.125 44.4051 11.9071 44.5623 10.375H38.864V8.48928H46.4093C46.4879 8.84285 46.5272 9.23571 46.5272 9.62857Z" fill="#444746"/>
<path d="M50.6146 16.7785H48.6104V6.09284H50.536V7.58569H50.6146C50.929 7.07498 51.4005 6.64284 52.0293 6.28926C52.6581 5.93569 53.2869 5.77855 53.9156 5.77855C54.7016 5.77855 55.409 5.97498 55.9984 6.32855C56.5879 6.68212 57.0202 7.19284 57.2953 7.82141C58.1991 6.44641 59.4174 5.77855 60.9893 5.77855C62.2076 5.77855 63.19 6.17141 63.8581 6.91784C64.5262 7.66426 64.8799 8.76426 64.8799 10.1393V16.8178H62.8364V10.4143C62.8364 9.39283 62.6399 8.68569 62.2862 8.25355C61.9325 7.82141 61.3037 7.58569 60.4392 7.58569C59.6532 7.58569 59.0244 7.89998 58.5135 8.56784C58.0027 9.23569 57.7276 9.98212 57.7276 10.8857V16.7785H55.7233V10.4143C55.7233 9.39283 55.5269 8.68569 55.1732 8.25355C54.8195 7.82141 54.1907 7.58569 53.3262 7.58569C52.5402 7.58569 51.9114 7.89998 51.4005 8.56784C50.8897 9.23569 50.6146 9.98212 50.6146 10.8857V16.7785Z" fill="#444746"/>
<path d="M71.1284 5.73924C72.6218 5.73924 73.7614 6.1321 74.626 6.91781C75.4905 7.70353 75.9228 8.80353 75.9228 10.1785V16.7785H73.9972V15.2857H73.9186C73.0933 16.5035 71.993 17.1321 70.6175 17.1321C69.4386 17.1321 68.4561 16.7785 67.6702 16.0714C66.8842 15.3642 66.4912 14.5 66.4912 13.4392C66.4912 12.3392 66.9235 11.475 67.7488 10.8071C68.574 10.1392 69.7137 9.82496 71.0891 9.82496C72.2681 9.82496 73.2505 10.0607 74.0365 10.4928V10.0214C74.0365 9.31424 73.7614 8.72496 73.2112 8.25353C72.661 7.7821 71.993 7.5071 71.2856 7.5071C70.1853 7.5071 69.2814 7.97853 68.6133 8.92139L66.8449 7.82139C67.7881 6.44639 69.2421 5.73924 71.1284 5.73924ZM68.5347 13.5178C68.5347 14.0285 68.7705 14.4607 69.2028 14.8142C69.6351 15.1678 70.146 15.325 70.7747 15.325C71.6 15.325 72.386 15.0107 73.0147 14.3821C73.6828 13.7535 73.9972 13.0071 73.9972 12.1821C73.3684 11.6714 72.5039 11.4357 71.3642 11.4357C70.5389 11.4357 69.8709 11.6321 69.3207 12.025C68.8098 12.4571 68.5347 12.9285 68.5347 13.5178Z" fill="#444746"/>
<path d="M80.7958 2.43924C80.7958 2.8321 80.6386 3.14639 80.3635 3.46067C80.0884 3.73567 79.7347 3.89281 79.3417 3.89281C78.9487 3.89281 78.6344 3.73567 78.32 3.46067C78.0449 3.18567 77.8877 2.8321 77.8877 2.43924C77.8877 2.04639 78.0449 1.7321 78.32 1.41781C78.5951 1.14281 78.9487 0.985672 79.3417 0.985672C79.7347 0.985672 80.0491 1.14281 80.3635 1.41781C80.6386 1.69281 80.7958 2.04639 80.7958 2.43924ZM80.3635 6.09281V16.7785H78.3593V6.09281H80.3635Z" fill="#444746"/>
<path d="M85.0003 1.1821V16.7785H82.9961V1.1821H85.0003Z" fill="#444746"/>
</svg>
