<svg width="26" height="27" viewBox="0 0 26 27" fill="none" xmlns="http://www.w3.org/2000/svg">
<path d="M6.39636 23.4879L5.68925 22.7808H5.68925L6.39636 23.4879ZM6.39636 10.3822L5.68925 11.0893L5.68925 11.0893L6.39636 10.3822ZM14.9686 17.7602L15.9686 17.7602V17.7602H14.9686ZM23.7686 15.0103L24.7686 15.0106V15.0103H23.7686ZM23.7671 21.0607L24.7671 21.061L23.7671 21.0607ZM14.9686 11.9014L13.9686 11.9014C13.9686 12.3306 14.2424 12.7119 14.6491 12.849C15.0558 12.9861 15.5046 12.8484 15.7645 12.5069L14.9686 11.9014ZM14.9685 21.6101L15.9685 21.6101L14.9685 21.6101ZM19.1406 23.4911L18.4335 24.1982L19.1406 23.4911ZM14.6463 23.4879L13.9392 22.7808L13.9392 22.7808L14.6463 23.4879ZM14.424 10.2106L13.9191 11.0737L14.424 10.2106ZM14.818 10.6046L15.6811 10.0996L14.818 10.6046ZM3.96855 10.0601V11.0601H4.51855V10.0601V9.06006H3.96855V10.0601ZM6.71854 12.2601H5.71854V21.6101H6.71854H7.71854V12.2601H6.71854ZM4.51855 23.8101V22.8101H3.96855V23.8101V24.8101H4.51855V23.8101ZM1.76855 21.6101H2.76855V12.2601H1.76855H0.768555V21.6101H1.76855ZM3.96855 23.8101V22.8101C3.42173 22.8101 3.11222 22.8079 2.8948 22.7787C2.70614 22.7533 2.74217 22.7251 2.79784 22.7808L2.09074 23.4879L1.38363 24.195C1.76149 24.5728 2.21787 24.7057 2.62831 24.7609C3.00997 24.8122 3.47828 24.8101 3.96855 24.8101V23.8101ZM1.76855 21.6101H0.768555C0.768555 22.1003 0.766431 22.5686 0.817745 22.9503C0.872926 23.3607 1.00577 23.8171 1.38363 24.195L2.09074 23.4879L2.79784 22.7808C2.85352 22.8364 2.82527 22.8725 2.79991 22.6838C2.77068 22.4664 2.76855 22.1569 2.76855 21.6101H1.76855ZM6.71854 21.6101H5.71854C5.71854 22.1569 5.71642 22.4664 5.68718 22.6838C5.66182 22.8725 5.63357 22.8364 5.68925 22.7808L6.39636 23.4879L7.10347 24.195C7.48133 23.8171 7.61417 23.3607 7.66935 22.9503C7.72066 22.5686 7.71854 22.1003 7.71854 21.6101H6.71854ZM4.51855 23.8101V24.8101C5.00882 24.8101 5.47712 24.8122 5.85879 24.7609C6.26922 24.7057 6.72561 24.5728 7.10347 24.195L6.39636 23.4879L5.68925 22.7808C5.74493 22.7251 5.78095 22.7533 5.59229 22.7787C5.37487 22.8079 5.06536 22.8101 4.51855 22.8101V23.8101ZM4.51855 10.0601V11.0601C5.06536 11.0601 5.37487 11.0622 5.59229 11.0914C5.78095 11.1168 5.74493 11.145 5.68925 11.0893L6.39636 10.3822L7.10347 9.67514C6.72561 9.29728 6.26922 9.16443 5.85879 9.10925C5.47712 9.05794 5.00882 9.06006 4.51855 9.06006V10.0601ZM6.71854 12.2601H7.71854C7.71854 11.7698 7.72066 11.3015 7.66935 10.9198C7.61417 10.5094 7.48133 10.053 7.10347 9.67514L6.39636 10.3822L5.68925 11.0893C5.63357 11.0337 5.66182 10.9977 5.68718 11.1863C5.71642 11.4037 5.71854 11.7132 5.71854 12.2601H6.71854ZM3.96855 10.0601V9.06006C3.47827 9.06006 3.00997 9.05794 2.6283 9.10925C2.21787 9.16443 1.76149 9.29728 1.38363 9.67514L2.09074 10.3822L2.79784 11.0893C2.74217 11.145 2.70615 11.1168 2.8948 11.0914C3.11222 11.0622 3.42174 11.0601 3.96855 11.0601V10.0601ZM1.76855 12.2601H2.76855C2.76855 11.7132 2.77068 11.4037 2.79991 11.1863C2.82527 10.9977 2.85352 11.0337 2.79784 11.0893L2.09074 10.3822L1.38363 9.67514C1.00577 10.053 0.872926 10.5094 0.817745 10.9198C0.766431 11.3015 0.768555 11.7698 0.768555 12.2601H1.76855ZM6.71854 4.28506H5.71854C5.71854 5.09968 5.05816 5.76006 4.24355 5.76006V6.76006V7.76006C6.16274 7.76006 7.71854 6.20425 7.71854 4.28506H6.71854ZM4.24355 6.76006V5.76006C3.42893 5.76006 2.76855 5.09968 2.76855 4.28506H1.76855H0.768555C0.768555 6.20425 2.32436 7.76006 4.24355 7.76006V6.76006ZM1.76855 4.28506H2.76855C2.76855 3.47044 3.42893 2.81006 4.24355 2.81006V1.81006V0.810059C2.32436 0.810059 0.768555 2.36587 0.768555 4.28506H1.76855ZM4.24355 1.81006V2.81006C5.05816 2.81006 5.71854 3.47044 5.71854 4.28506H6.71854H7.71854C7.71854 2.36587 6.16274 0.810059 4.24355 0.810059V1.81006ZM12.2185 10.0601V11.0601H13.1272V10.0601V9.06006H12.2185V10.0601ZM12.7685 23.8101V22.8101H12.2185V23.8101V24.8101H12.7685V23.8101ZM10.0185 21.6101H11.0185V12.2601H10.0185H9.01853V21.6101H10.0185ZM14.9686 17.7602H15.9686C15.9686 16.9251 16.1068 16.3134 16.3301 15.9427C16.5086 15.6463 16.7575 15.4602 17.2652 15.4602V14.4602V13.4602C16.0571 13.4602 15.1577 14.0128 14.6168 14.9108C14.1208 15.7345 13.9686 16.7727 13.9686 17.7602H14.9686ZM18.5949 10.0603V11.0603C20.6944 11.0603 22.7686 12.9038 22.7686 15.0103H23.7686H24.7686C24.7686 11.6492 21.6426 9.06032 18.5949 9.06032V10.0603ZM21.5671 23.8101V22.8101H21.0185V23.8101V24.8101H21.5671V23.8101ZM23.7686 15.0103L22.7686 15.0101L22.7671 21.0605L23.7671 21.0607L24.7671 21.061L24.7686 15.0106L23.7686 15.0103ZM14.9686 11.9014L15.7645 12.5069C16.4464 11.6104 17.469 11.0603 18.5949 11.0603V10.0603V9.06032C16.7909 9.06032 15.1993 9.94648 14.1727 11.296L14.9686 11.9014ZM18.8185 21.0602H19.8185V16.1102H18.8185H17.8185V21.0602H18.8185ZM18.8185 16.1102H19.8185C19.8185 14.7044 18.7313 13.4602 17.2652 13.4602V14.4602V15.4602C17.5147 15.4602 17.8185 15.6934 17.8185 16.1102H18.8185ZM14.9686 17.7602L13.9686 17.7602L13.9685 21.6101L14.9685 21.6101L15.9685 21.6101L15.9686 17.7602L14.9686 17.7602ZM21.0185 23.8101V22.8101C20.47 22.8101 20.1606 22.8087 19.9421 22.7799C19.7527 22.755 19.7906 22.7268 19.8478 22.784L19.1406 23.4911L18.4335 24.1982C18.8129 24.5775 19.2711 24.7088 19.6808 24.7628C20.0614 24.813 20.5298 24.8101 21.0185 24.8101V23.8101ZM18.8185 21.0602H17.8185C17.8185 21.5651 17.8176 22.1424 17.8629 22.6353C17.8857 22.883 17.9231 23.1464 17.9913 23.3905C18.0542 23.6151 18.1734 23.9381 18.4335 24.1982L19.1406 23.4911L19.8478 22.784C19.9468 22.883 19.9452 22.9512 19.9174 22.8518C19.8951 22.7719 19.872 22.6422 19.8545 22.4521C19.8193 22.0694 19.8185 21.5923 19.8185 21.0602H18.8185ZM21.5671 23.8101V24.8101C22.0557 24.8101 22.524 24.8129 22.9046 24.7628C23.3142 24.7088 23.7723 24.5774 24.1516 24.1982L23.4446 23.4911L22.7375 22.7839C22.7946 22.7268 22.8325 22.755 22.6431 22.7799C22.4247 22.8087 22.1154 22.8101 21.5671 22.8101V23.8101ZM23.7671 21.0607L22.7671 21.0605C22.767 21.5926 22.766 22.0695 22.7308 22.4522C22.7132 22.6422 22.6902 22.7719 22.6678 22.8517C22.64 22.9511 22.6385 22.8829 22.7375 22.7839L23.4446 23.4911L24.1516 24.1982C24.4117 23.9382 24.531 23.6152 24.5938 23.3908C24.6621 23.1467 24.6995 22.8833 24.7223 22.6357C24.7677 22.1429 24.767 21.5657 24.7671 21.061L23.7671 21.0607ZM12.2185 23.8101V22.8101C11.6717 22.8101 11.3622 22.8079 11.1448 22.7787C10.9561 22.7533 10.9921 22.7251 11.0478 22.7808L10.3407 23.4879L9.6336 24.195C10.0115 24.5728 10.4678 24.7057 10.8783 24.7609C11.2599 24.8122 11.7283 24.8101 12.2185 24.8101V23.8101ZM10.0185 21.6101H9.01853C9.01853 22.1003 9.01641 22.5686 9.06772 22.9503C9.1229 23.3607 9.25575 23.8171 9.6336 24.195L10.3407 23.4879L11.0478 22.7808C11.1035 22.8364 11.0753 22.8725 11.0499 22.6838C11.0207 22.4664 11.0185 22.1569 11.0185 21.6101H10.0185ZM12.7685 23.8101V24.8101C13.2588 24.8101 13.7271 24.8122 14.1088 24.7609C14.5192 24.7057 14.9756 24.5728 15.3534 24.195L14.6463 23.4879L13.9392 22.7808C13.9949 22.7251 14.0309 22.7533 13.8423 22.7787C13.6249 22.8079 13.3154 22.8101 12.7685 22.8101V23.8101ZM14.9685 21.6101L13.9685 21.6101C13.9685 22.1569 13.9664 22.4664 13.9372 22.6838C13.9118 22.8725 13.8836 22.8364 13.9392 22.7808L14.6463 23.4879L15.3534 24.195C15.7313 23.8171 15.8642 23.3608 15.9193 22.9503C15.9707 22.5687 15.9685 22.1004 15.9685 21.6101L14.9685 21.6101ZM13.1272 10.0601V11.0601C13.4923 11.0601 13.6985 11.061 13.8478 11.0747C13.983 11.0871 13.9693 11.1031 13.9191 11.0737L14.424 10.2106L14.929 9.34748C14.6214 9.16753 14.3058 9.1083 14.0302 9.08305C13.7686 9.05908 13.4551 9.06006 13.1272 9.06006V10.0601ZM14.9686 11.9014L15.9686 11.9014C15.9686 11.5735 15.9695 11.26 15.9456 10.9983C15.9203 10.7227 15.8611 10.4071 15.6811 10.0996L14.818 10.6046L13.9549 11.1096C13.9255 11.0593 13.9415 11.0456 13.9539 11.1809C13.9676 11.3301 13.9686 11.5363 13.9686 11.9014L14.9686 11.9014ZM14.424 10.2106L13.9191 11.0737C13.9339 11.0824 13.9462 11.0947 13.9549 11.1096L14.818 10.6046L15.6811 10.0996C15.4991 9.78848 15.2401 9.52948 14.929 9.34748L14.424 10.2106ZM12.2185 10.0601V9.06006C11.7283 9.06006 11.2599 9.05794 10.8783 9.10925C10.4678 9.16443 10.0115 9.29728 9.6336 9.67514L10.3407 10.3822L11.0478 11.0893C10.9921 11.145 10.9561 11.1168 11.1448 11.0914C11.3622 11.0622 11.6717 11.0601 12.2185 11.0601V10.0601ZM10.0185 12.2601H11.0185C11.0185 11.7132 11.0207 11.4037 11.0499 11.1863C11.0753 10.9977 11.1035 11.0337 11.0478 11.0893L10.3407 10.3822L9.6336 9.67514C9.25575 10.053 9.1229 10.5094 9.06772 10.9198C9.01641 11.3015 9.01853 11.7698 9.01853 12.2601H10.0185Z" fill="#787878"/>
</svg>
