<svg width="23" height="22" viewBox="0 0 23 22" fill="none" xmlns="http://www.w3.org/2000/svg">
<g clip-path="url(#clip0_2346_19976)">
<path d="M11.7771 22.0171C17.857 22.0171 22.7857 17.0884 22.7857 11.0086C22.7857 4.92871 17.857 0 11.7771 0C5.69726 0 0.768555 4.92871 0.768555 11.0086C0.768555 17.0884 5.69726 22.0171 11.7771 22.0171Z" fill="#787878"/>
<path fill-rule="evenodd" clip-rule="evenodd" d="M5.74145 10.8885C8.948 9.48247 11.0914 8.57366 12.1717 8.12783C15.2239 6.85893 15.8584 6.63601 16.2699 6.61887C16.3556 6.61887 16.5614 6.63601 16.6986 6.7389C16.8015 6.82463 16.8358 6.94467 16.8529 7.0304C16.8701 7.11614 16.8872 7.30476 16.8701 7.45908C16.6986 9.19096 15.9955 13.4263 15.6183 15.364C15.464 16.1871 15.1553 16.4614 14.8638 16.4957C14.2294 16.5472 13.7321 16.067 13.1148 15.6726C12.1545 15.0382 11.6058 14.6438 10.6627 14.0265C9.58245 13.3063 10.2855 12.9119 10.9028 12.2775C11.0571 12.106 13.8864 9.55106 13.9379 9.31099C13.9379 9.2767 13.955 9.17382 13.8864 9.12237C13.8178 9.07093 13.7321 9.08808 13.6635 9.10523C13.5606 9.12237 12.0174 10.1512 9.01659 12.1746C8.57076 12.4832 8.17637 12.6204 7.81628 12.6204C7.42189 12.6204 6.66741 12.3975 6.10155 12.2089C5.41566 11.986 4.86694 11.8659 4.91838 11.4887C4.95268 11.3001 5.22703 11.0943 5.74145 10.8885Z" fill="#030303"/>
</g>
<defs>
<clipPath id="clip0_2346_19976">
<rect width="22" height="22" fill="white" transform="translate(0.768555)"/>
</clipPath>
</defs>
</svg>
