<svg width="94" height="77" viewBox="0 0 94 77" fill="none" xmlns="http://www.w3.org/2000/svg">
<path d="M45.1988 76.3178C66.3259 76.3178 83.4528 59.3792 83.4528 38.4845C83.4528 17.5897 66.3259 0.651123 45.1988 0.651123C24.0717 0.651123 6.94482 17.5897 6.94482 38.4845C6.94482 59.3792 24.0717 76.3178 45.1988 76.3178Z" fill="#DFDFDF"/>
<path fill-rule="evenodd" clip-rule="evenodd" d="M78.2042 62.6015C78.5528 62.4787 78.9196 62.3154 79.2025 62.079C79.5385 61.7982 79.6751 61.4366 79.7669 61.056C79.8847 60.567 79.9318 60.046 80.0746 59.5562C80.1275 59.3743 80.2293 59.3056 80.273 59.2751C80.3834 59.198 80.495 59.1774 80.5999 59.1851C80.7244 59.194 80.8953 59.2406 81.0077 59.4469C81.0237 59.4764 81.0445 59.5214 81.0585 59.583C81.0688 59.6282 81.0754 59.7694 81.0862 59.8277C81.1132 59.9711 81.1359 60.1146 81.1571 60.2589C81.2278 60.739 81.2685 61.1467 81.4919 61.5878C81.795 62.1866 82.0988 62.553 82.5107 62.7153C82.909 62.8722 83.3852 62.8427 83.9936 62.7196C84.0515 62.7058 84.1088 62.6939 84.1655 62.6842C84.4338 62.6378 84.6902 62.812 84.7429 63.0763C84.7956 63.3404 84.6251 63.5978 84.3593 63.6559C84.3038 63.6679 84.2491 63.6794 84.195 63.6899C83.3728 63.8912 82.4209 64.6097 81.8677 65.2388C81.6972 65.4328 81.4476 65.9751 81.193 66.3211C81.0051 66.5763 80.7939 66.7445 80.6166 66.804C80.4978 66.844 80.3976 66.8379 80.3149 66.8177C80.1946 66.7883 80.0949 66.7239 80.0183 66.6215C79.9767 66.5654 79.938 66.4903 79.9196 66.3944C79.9107 66.3482 79.9098 66.2309 79.91 66.1778C79.8581 66.0013 79.7945 65.8289 79.7483 65.6508C79.6379 65.2258 79.4213 64.9567 79.1641 64.6012C78.9234 64.2685 78.665 64.0595 78.2861 63.8926C78.2368 63.8807 77.8392 63.7844 77.6987 63.7292C77.4936 63.6481 77.3958 63.5124 77.3603 63.4393C77.3 63.3152 77.2938 63.2069 77.3058 63.1165C77.3237 62.9832 77.3842 62.869 77.4916 62.7769C77.5581 62.7196 77.6574 62.6639 77.7905 62.6368C77.8933 62.6156 78.1659 62.6033 78.2042 62.6015ZM80.5372 61.9088C80.5557 61.9494 80.5753 61.9902 80.5961 62.0315C81.0401 62.9084 81.5366 63.3981 82.14 63.6356L82.1603 63.6434C81.7566 63.9398 81.3911 64.2711 81.1118 64.5887C80.9968 64.7195 80.8446 64.9912 80.6801 65.2697C80.5306 64.7892 80.2862 64.4496 79.9789 64.0246C79.7441 63.7002 79.498 63.4561 79.1957 63.2572C79.4303 63.1381 79.6541 62.9986 79.849 62.8357C80.1736 62.5645 80.3882 62.2502 80.5372 61.9088Z" fill="#E3E3E3"/>
<ellipse cx="1.81174" cy="31.1119" rx="1.81174" ry="1.79182" fill="#E3E3E3"/>
<path d="M15.1426 10.5486C14.8988 10.3928 14.573 10.4632 14.416 10.7068H14.415C14.2562 10.9515 14.3288 11.2771 14.5732 11.4333C15.957 12.3165 16.8592 13.5361 17.3184 15.1003L17.3174 15.1013C17.3981 15.381 17.6921 15.5401 17.9707 15.4597H17.9717C18.2489 15.379 18.4128 15.0873 18.3301 14.8074L18.2236 14.4724C17.6642 12.8189 16.6469 11.5092 15.1426 10.5486Z" fill="#787878" stroke="#787878" stroke-width="0.333333"/>
<path d="M40.4751 9.58301C37.7013 8.47593 34.6427 9.52378 33.1147 12.0674C32.8823 11.8586 32.6373 11.6633 32.3823 11.4834C29.4402 9.40862 25.1435 10.1006 21.8784 13.1494C21.3513 13.6419 20.9416 14.3608 20.6245 15.208C20.3069 16.0568 20.0782 17.0455 19.9214 18.0898C19.6208 20.0909 19.5664 22.3109 19.5825 24.1035C19.2434 23.313 18.864 22.5433 18.4604 21.7764C16.4053 17.8713 14.3834 13.7126 10.9771 10.7051H10.9761C10.7584 10.5143 10.4268 10.5323 10.2339 10.749H10.2329C10.0626 10.9393 10.0578 11.2179 10.2046 11.4131L10.2769 11.4912C13.5608 14.3913 15.5001 18.4148 17.5259 22.2646C18.1598 23.4691 18.7287 24.6707 19.1675 25.9502C19.3009 26.3363 19.4345 26.7125 19.5454 27.0977C19.5457 27.0994 19.5461 27.1031 19.5464 27.1094C19.5468 27.1198 19.5465 27.1334 19.5454 27.1514C19.5443 27.1698 19.5424 27.1888 19.5405 27.2119L19.5356 27.2852V27.2861C19.5327 27.4121 19.5381 27.5472 19.5659 27.6533V27.6543C19.6183 27.8484 19.7355 27.9837 19.8823 28.0605H19.8833C19.9908 28.1159 20.124 28.1465 20.2837 28.1182H20.2856C20.3991 28.0968 20.5813 28.0327 20.6792 27.8018V27.8008C20.6907 27.7735 20.6983 27.7417 20.7026 27.7178C20.708 27.688 20.7123 27.6505 20.7163 27.6074C20.7244 27.521 20.7298 27.4047 20.7261 27.2617L20.6782 25.9717C20.6242 24.4192 20.5748 21.9706 20.7983 19.6191L20.8657 18.9814C20.9942 17.8955 21.1817 16.8554 21.4624 15.9707C21.7439 15.0836 22.1143 14.3691 22.5991 13.916C25.5098 11.1982 29.2507 10.5623 31.7739 12.3408C32.093 12.5658 32.3915 12.8176 32.6665 13.0928C32.6193 13.3391 32.588 13.648 32.5923 13.9629C32.5971 14.3177 32.6437 14.6938 32.7593 14.999C32.8655 15.279 33.0317 15.5112 33.2544 15.6553L33.353 15.7119C33.6391 15.8536 33.9974 15.8672 34.4175 15.6553C34.7791 15.4725 34.9096 15.1228 34.8765 14.749L34.8589 14.6201C34.8033 14.3159 34.6531 14.005 34.5669 13.8535C34.3669 13.5015 34.1341 13.1704 33.8774 12.8604C35.1239 10.5087 37.8765 9.5508 40.311 10.6562C40.5759 10.7761 40.8881 10.6604 41.0103 10.3975V10.3965C41.1308 10.1325 41.0143 9.82041 40.7485 9.7002L40.4751 9.58301ZM33.6987 14.4688C33.7398 14.5517 33.785 14.6549 33.8101 14.7559C33.8067 14.7516 33.8009 14.7476 33.7964 14.7402C33.7805 14.7142 33.765 14.6789 33.7456 14.6279V14.627C33.727 14.578 33.7124 14.5247 33.6987 14.4688Z" fill="#787878" stroke="#787878" stroke-width="0.333333"/>
<rect x="27.5439" y="20.28" width="65.8522" height="23.4778" rx="8" fill="#787878"/>
<rect x="54.7271" y="28.3625" width="22.206" height="3.07906" rx="1.53953" fill="#D9D9D9"/>
<rect x="33.2871" y="32.9812" width="43.7581" height="3.07906" rx="1.53953" fill="#030303"/>
<ellipse cx="84.9731" cy="32.2114" rx="3.82861" ry="3.84883" fill="#2B2B2B"/>
<rect y="39.9092" width="65.8522" height="23.4778" rx="8" fill="#B5B5B5"/>
<rect x="16.4629" y="47.9917" width="22.206" height="3.07906" rx="1.53953" fill="black"/>
<rect x="16.4629" y="52.6104" width="43.7581" height="3.07906" rx="1.53953" fill="#F7F7F7"/>
<ellipse cx="9.57129" cy="51.8405" rx="3.82861" ry="3.84883" fill="#1C1C1C"/>
</svg>
