<svg width="20" height="20" viewBox="0 0 20 20" fill="none" xmlns="http://www.w3.org/2000/svg">
<path d="M10 18.3334C9.31818 18.3334 8.66682 18.0582 7.36411 17.5079C4.12137 16.1381 2.5 15.4532 2.5 14.3011L2.5 5.83335M10 18.3334C10.6818 18.3334 11.3332 18.0582 12.6359 17.5079C15.8786 16.1381 17.5 15.4532 17.5 14.3011L17.5 5.83335M10 18.3334L10 9.46239M5 10L6.66667 10.8334M14.1667 3.33335L5.83333 7.50002M4.50393 6.89822L6.93827 8.07617C8.4407 8.80318 9.19191 9.16669 10 9.16669C10.8081 9.16669 11.5593 8.80318 13.0617 8.07617L15.4961 6.89823C16.832 6.25177 17.5 5.92855 17.5 5.41669C17.5 4.90483 16.832 4.5816 15.4961 3.93515L13.0617 2.7572C11.5593 2.03019 10.8081 1.66669 10 1.66669C9.19191 1.66669 8.4407 2.03019 6.93827 2.7572L4.50393 3.93515C3.16798 4.5816 2.5 4.90483 2.5 5.41669C2.5 5.92855 3.16798 6.25177 4.50393 6.89822Z" stroke="white" stroke-opacity="0.6" stroke-width="1.4" strokeLinecap="round" stroke-linejoin="round"/>
</svg>
