<svg width="30" height="31" viewBox="0 0 30 31" fill="none" xmlns="http://www.w3.org/2000/svg">
<path fill-rule="evenodd" clip-rule="evenodd" d="M15 26.75C21.2132 26.75 26.25 21.7132 26.25 15.5C26.25 9.2868 21.2132 4.25 15 4.25C8.7868 4.25 3.75 9.2868 3.75 15.5C3.75 21.7132 8.7868 26.75 15 26.75ZM19.5943 13.9218C20.1034 13.4555 20.1381 12.6649 19.6718 12.1557C19.2055 11.6466 18.4149 11.6119 17.9057 12.0782L13.2907 16.305L12.0943 15.2092C11.5852 14.743 10.7945 14.7777 10.3282 15.2868C9.86192 15.7959 9.89664 16.5866 10.4057 17.0529L12.4464 18.9218C12.9242 19.3594 13.6571 19.3594 14.1349 18.9218L19.5943 13.9218Z" fill="#0F973D"/>
</svg>
