<svg width="22" height="22" viewBox="0 0 22 22" fill="none" xmlns="http://www.w3.org/2000/svg">
<path d="M5.20709 20.7071L4.60605 20.1061H4.60605L5.20709 20.7071ZM5.20709 8.79289L4.60605 9.39393H4.60605L5.20709 8.79289ZM13 15.5001L13.85 15.5001V15.5001H13ZM21 13.0002L21.85 13.0004V13.0002H21ZM20.9987 18.5006L21.8487 18.5008L20.9987 18.5006ZM13 10.174L12.15 10.174C12.15 10.5388 12.3828 10.8629 12.7285 10.9794C13.0742 11.0959 13.4557 10.9789 13.6765 10.6886L13 10.174ZM13 19L13.85 19V19L13 19ZM16.7928 20.71L16.1918 21.311H16.1918L16.7928 20.71ZM12.7071 20.7071L12.106 20.1061H12.106L12.7071 20.7071ZM12.505 8.63687L12.0757 9.37053H12.0757L12.505 8.63687ZM12.8631 8.995L13.5968 8.56574L12.8631 8.995ZM2.99999 8.5V9.35H3.49999V8.5V7.65H2.99999V8.5ZM5.49999 10.5H4.64999V19H5.49999H6.34999V10.5H5.49999ZM3.49999 21V20.15H2.99999V21V21.85H3.49999V21ZM1 19H1.85V10.5H1H0.15V19H1ZM2.99999 21V20.15C2.50456 20.15 2.2185 20.1482 2.01599 20.121C1.83793 20.097 1.85613 20.0683 1.89393 20.1061L1.29289 20.7071L0.691851 21.3081C1.02255 21.6388 1.4229 21.7565 1.78947 21.8058C2.13158 21.8518 2.55262 21.85 2.99999 21.85V21ZM1 19H0.15C0.15 19.4474 0.148195 19.8684 0.194191 20.2105C0.243475 20.5771 0.361151 20.9774 0.691851 21.3081L1.29289 20.7071L1.89393 20.1061C1.93174 20.1439 1.90297 20.1621 1.87903 19.984C1.85181 19.7815 1.85 19.4954 1.85 19H1ZM5.49999 19H4.64999C4.64999 19.4954 4.64818 19.7815 4.62096 19.984C4.59702 20.1621 4.56825 20.1439 4.60605 20.1061L5.20709 20.7071L5.80814 21.3081C6.13884 20.9774 6.25651 20.5771 6.3058 20.2105C6.35179 19.8684 6.34999 19.4474 6.34999 19H5.49999ZM3.49999 21V21.85C3.94737 21.85 4.36841 21.8518 4.71052 21.8058C5.07709 21.7565 5.47744 21.6388 5.80814 21.3081L5.20709 20.7071L4.60605 20.1061C4.64386 20.0683 4.66206 20.097 4.484 20.121C4.28149 20.1482 3.99543 20.15 3.49999 20.15V21ZM3.49999 8.5V9.35C3.99543 9.35 4.28149 9.35181 4.484 9.37903C4.66206 9.40297 4.64386 9.43174 4.60605 9.39393L5.20709 8.79289L5.80814 8.19185C5.47744 7.86115 5.07709 7.74348 4.71052 7.69419C4.36841 7.64819 3.94737 7.65 3.49999 7.65V8.5ZM5.49999 10.5H6.34999C6.34999 10.0526 6.35179 9.63159 6.3058 9.28947C6.25651 8.9229 6.13884 8.52255 5.80814 8.19185L5.20709 8.79289L4.60605 9.39393C4.56825 9.35613 4.59702 9.33793 4.62096 9.51599C4.64818 9.7185 4.64999 10.0046 4.64999 10.5H5.49999ZM2.99999 8.5V7.65C2.55262 7.65 2.13158 7.64819 1.78946 7.69419C1.4229 7.74348 1.02255 7.86115 0.691851 8.19185L1.29289 8.79289L1.89393 9.39393C1.85613 9.43174 1.83793 9.40297 2.01599 9.37903C2.2185 9.35181 2.50456 9.35 2.99999 9.35V8.5ZM1 10.5H1.85C1.85 10.0046 1.85181 9.7185 1.87903 9.51599C1.90297 9.33793 1.93174 9.35613 1.89393 9.39393L1.29289 8.79289L0.691851 8.19185C0.361151 8.52255 0.243475 8.9229 0.194191 9.28947C0.148195 9.63159 0.15 10.0526 0.15 10.5H1ZM5.49999 3.25H4.64999C4.64999 4.0232 4.02319 4.65 3.24999 4.65V5.5V6.35C4.96207 6.35 6.34999 4.96208 6.34999 3.25H5.49999ZM3.24999 5.5V4.65C2.4768 4.65 1.85 4.0232 1.85 3.25H1H0.15C0.15 4.96208 1.53791 6.35 3.24999 6.35V5.5ZM1 3.25H1.85C1.85 2.4768 2.4768 1.85 3.24999 1.85V1V0.15C1.53791 0.15 0.15 1.53792 0.15 3.25H1ZM3.24999 1V1.85C4.02319 1.85 4.64999 2.4768 4.64999 3.25H5.49999H6.34999C6.34999 1.53792 4.96207 0.15 3.24999 0.15V1ZM10.5 8.5V9.35H11.326V8.5V7.65H10.5V8.5ZM11 21V20.15H10.5V21V21.85H11V21ZM8.49998 19H9.34998V10.5H8.49998H7.64998V19H8.49998ZM13 15.5001H13.85C13.85 14.7364 13.9761 14.1677 14.1871 13.8173C14.3601 13.5301 14.6056 13.3501 15.0878 13.3501V12.5001V11.6501C14.0103 11.6501 13.2119 12.1417 12.7309 12.9402C12.288 13.6757 12.15 14.6069 12.15 15.5001H13ZM16.2967 8.50024V9.35024C18.2333 9.35024 20.15 11.0482 20.15 13.0002H21H21.85C21.85 9.98172 19.0393 7.65024 16.2967 7.65024V8.50024ZM18.9987 21V20.15H18.4999V21V21.85H18.9987V21ZM21 13.0002L20.15 13L20.1487 18.5004L20.9987 18.5006L21.8487 18.5008L21.85 13.0004L21 13.0002ZM13 10.174L13.6765 10.6886C14.3066 9.86027 15.2531 9.35024 16.2967 9.35024V8.50024V7.65024C14.6767 7.65024 13.2466 8.44591 12.3235 9.65932L13 10.174ZM16.4999 18.5001H17.3499V14.0001H16.4999H15.6499V18.5001H16.4999ZM16.4999 14.0001H17.3499C17.3499 12.7513 16.3848 11.6501 15.0878 11.6501V12.5001V13.3501C15.3506 13.3501 15.6499 13.592 15.6499 14.0001H16.4999ZM13 15.5001L12.15 15.5001L12.15 19L13 19L13.85 19L13.85 15.5001L13 15.5001ZM18.4999 21V20.15C18.0031 20.15 17.7171 20.1489 17.5137 20.1221C17.335 20.0986 17.3548 20.0699 17.3939 20.109L16.7928 20.71L16.1918 21.311C16.5237 21.643 16.9257 21.7593 17.2916 21.8075C17.6328 21.8525 18.0539 21.85 18.4999 21.85V21ZM16.4999 18.5001H15.6499C15.6499 18.96 15.6492 19.4818 15.6901 19.9266C15.7107 20.1501 15.7442 20.3856 15.8049 20.6027C15.861 20.8031 15.9659 21.0852 16.1918 21.311L16.7928 20.71L17.3939 20.109C17.4733 20.1884 17.4684 20.2388 17.4421 20.1448C17.4204 20.0673 17.399 19.9454 17.383 19.7709C17.3507 19.4198 17.3499 18.9831 17.3499 18.5001H16.4999ZM18.9987 21V21.85C19.4446 21.85 19.8657 21.8525 20.2068 21.8075C20.5727 21.7593 20.9745 21.6429 21.3064 21.3111L20.7055 20.71L20.1045 20.1089C20.1435 20.0699 20.1632 20.0985 19.9846 20.1221C19.7812 20.1489 19.4953 20.15 18.9987 20.15V21ZM20.9987 18.5006L20.1487 18.5004C20.1486 18.9833 20.1477 19.4199 20.1154 19.771C20.0993 19.9455 20.0779 20.0673 20.0562 20.1447C20.0299 20.2388 20.0251 20.1883 20.1045 20.1089L20.7055 20.71L21.3064 21.3111C21.5323 21.0853 21.6373 20.8033 21.6933 20.6029C21.7541 20.3859 21.7876 20.1504 21.8082 19.927C21.8492 19.4822 21.8486 18.9605 21.8487 18.5008L20.9987 18.5006ZM10.5 21V20.15C10.0045 20.15 9.71847 20.1482 9.51596 20.121C9.33791 20.097 9.3561 20.0683 9.39391 20.1061L8.79287 20.7071L8.19183 21.3081C8.52253 21.6388 8.92288 21.7565 9.28944 21.8058C9.63156 21.8518 10.0526 21.85 10.5 21.85V21ZM8.49998 19H7.64998C7.64998 19.4474 7.64817 19.8684 7.69417 20.2105C7.74345 20.5771 7.86113 20.9774 8.19183 21.3081L8.79287 20.7071L9.39391 20.1061C9.43172 20.1439 9.40295 20.1621 9.37901 19.984C9.35178 19.7815 9.34998 19.4954 9.34998 19H8.49998ZM11 21V21.85C11.4474 21.85 11.8684 21.8518 12.2105 21.8058C12.5771 21.7565 12.9774 21.6389 13.3081 21.3082L12.7071 20.7071L12.106 20.1061C12.1438 20.0683 12.162 20.097 11.984 20.121C11.7815 20.1482 11.4954 20.15 11 20.15V21ZM13 19L12.15 19C12.15 19.4954 12.1482 19.7815 12.1209 19.984C12.097 20.1621 12.0682 20.1439 12.106 20.1061L12.7071 20.7071L13.3081 21.3082C13.6388 20.9775 13.7565 20.5771 13.8058 20.2106C13.8518 19.8684 13.85 19.4474 13.85 19L13 19ZM11.326 8.5V9.35C11.6568 9.35 11.8475 9.35083 11.9865 9.36356C12.1136 9.37521 12.1109 9.39107 12.0757 9.37053L12.505 8.63687L12.9342 7.9032C12.6652 7.7458 12.388 7.69323 12.1416 7.67065C11.9071 7.64917 11.6252 7.65 11.326 7.65V8.5ZM13 10.174L13.85 10.1739C13.85 9.87474 13.8508 9.59289 13.8293 9.35837C13.8068 9.11196 13.7542 8.83478 13.5968 8.56574L12.8631 8.995L12.1295 9.42425C12.1089 9.38914 12.1248 9.38644 12.1364 9.51352C12.1492 9.65249 12.15 9.84315 12.15 10.174L13 10.174ZM12.505 8.63687L12.0757 9.37053C12.098 9.38353 12.1165 9.40203 12.1295 9.42425L12.8631 8.995L13.5968 8.56574C13.4364 8.2917 13.2083 8.06353 12.9342 7.9032L12.505 8.63687ZM10.5 8.5V7.65C10.0526 7.65 9.63156 7.64819 9.28944 7.69419C8.92287 7.74348 8.52253 7.86115 8.19183 8.19185L8.79287 8.79289L9.39391 9.39393C9.35611 9.43174 9.33791 9.40297 9.51597 9.37903C9.71847 9.35181 10.0045 9.35 10.5 9.35V8.5ZM8.49998 10.5H9.34998C9.34998 10.0046 9.35178 9.7185 9.37901 9.51599C9.40295 9.33793 9.43172 9.35613 9.39391 9.39393L8.79287 8.79289L8.19183 8.19185C7.86113 8.52255 7.74345 8.9229 7.69417 9.28947C7.64817 9.63159 7.64998 10.0526 7.64998 10.5H8.49998Z" fill="#DFDFDF"/>
</svg>
