<svg width="31" height="31" viewBox="0 0 31 31" fill="none" xmlns="http://www.w3.org/2000/svg">
<mask id="mask0_2210_12729" style="mask-type:alpha" maskUnits="userSpaceOnUse" x="0" y="0" width="31" height="31">
<rect x="0.5" y="0.121338" width="30" height="30" fill="#D9D9D9"/>
</mask>
<g mask="url(#mask0_2210_12729)">
<path d="M15.499 15.1211C14.124 15.1211 12.9469 14.6315 11.9678 13.6523C10.9886 12.6732 10.499 11.4961 10.499 10.1211C10.499 8.74609 10.9886 7.56901 11.9678 6.58984C12.9469 5.61068 14.124 5.12109 15.499 5.12109C16.874 5.12109 18.0511 5.61068 19.0303 6.58984C20.0094 7.56901 20.499 8.74609 20.499 10.1211C20.499 11.4961 20.0094 12.6732 19.0303 13.6523C18.0511 14.6315 16.874 15.1211 15.499 15.1211ZM5.49902 22.6211V21.6211C5.49902 20.9128 5.68132 20.2617 6.0459 19.668C6.41048 19.0742 6.89486 18.6211 7.49902 18.3086C8.79069 17.6628 10.1032 17.1784 11.4365 16.8555C12.7699 16.5325 14.124 16.3711 15.499 16.3711C16.874 16.3711 18.2282 16.5325 19.5615 16.8555C20.8949 17.1784 22.2074 17.6628 23.499 18.3086C24.1032 18.6211 24.5876 19.0742 24.9521 19.668C25.3167 20.2617 25.499 20.9128 25.499 21.6211V22.6211C25.499 23.3086 25.2542 23.8971 24.7646 24.3867C24.2751 24.8763 23.6865 25.1211 22.999 25.1211H7.99902C7.31152 25.1211 6.72298 24.8763 6.2334 24.3867C5.74382 23.8971 5.49902 23.3086 5.49902 22.6211Z" fill="url(#paint0_linear_2210_12729)"/>
</g>
<defs>
<linearGradient id="paint0_linear_2210_12729" x1="20.423" y1="4.21325" x2="6.46644" y2="28.8383" gradientUnits="userSpaceOnUse">
<stop stop-color="white"/>
<stop offset="1" stop-color="#8FE5A3"/>
</linearGradient>
</defs>
</svg>
