<svg width="20" height="20" viewBox="0 0 20 20" fill="none" xmlns="http://www.w3.org/2000/svg">
<path d="M17.5 9.16663L11.1716 2.8382C10.7392 2.40582 10.523 2.18963 10.2707 2.03503C10.047 1.89795 9.80317 1.79694 9.54808 1.7357C9.26036 1.66663 8.95462 1.66663 8.34314 1.66663L5 1.66663M2.5 7.24996L2.5 8.89539C2.5 9.30304 2.5 9.50687 2.54605 9.69868C2.58688 9.86874 2.65422 10.0313 2.7456 10.1804C2.84867 10.3486 2.9928 10.4928 3.28105 10.781L9.78105 17.281C10.4411 17.941 10.7711 18.2711 11.1516 18.3947C11.4864 18.5035 11.847 18.5035 12.1817 18.3947C12.5622 18.2711 12.8923 17.941 13.5523 17.281L15.6144 15.2189C16.2744 14.5589 16.6044 14.2289 16.7281 13.8483C16.8368 13.5136 16.8368 13.153 16.7281 12.8183C16.6044 12.4377 16.2744 12.1077 15.6144 11.4477L9.53105 5.36434C9.2428 5.07609 9.09867 4.93196 8.93048 4.82889C8.78135 4.73751 8.61878 4.67017 8.44872 4.62934C8.25691 4.58329 8.05308 4.58329 7.64543 4.58329H5.16667C4.23325 4.58329 3.76654 4.58329 3.41002 4.76495C3.09641 4.92474 2.84145 5.17971 2.68166 5.49331C2.5 5.84983 2.5 6.31654 2.5 7.24996Z" stroke="white" stroke-opacity="0.6" stroke-width="1.4" strokeLinecap="round" stroke-linejoin="round"/>
</svg>
