<svg width="30" height="40" viewBox="0 0 30 40" fill="none" xmlns="http://www.w3.org/2000/svg">
<path d="M15 40C14.1333 40 13.35 39.7917 12.65 39.375C11.95 38.9583 11.4 38.4 11 37.7C9.9 37.7 8.95833 37.3083 8.175 36.525C7.39167 35.7417 7 34.8 7 33.7V26.6C5.03333 25.3 3.45833 23.5833 2.275 21.45C1.09167 19.3167 0.5 17 0.5 14.5C0.5 10.4667 1.90833 7.04167 4.725 4.225C7.54167 1.40833 10.9667 0 15 0C19.0333 0 22.4583 1.40833 25.275 4.225C28.0917 7.04167 29.5 10.4667 29.5 14.5C29.5 17.0667 28.9083 19.4 27.725 21.5C26.5417 23.6 24.9667 25.3 23 26.6V33.7C23 34.8 22.6083 35.7417 21.825 36.525C21.0417 37.3083 20.1 37.7 19 37.7C18.6 38.4 18.05 38.9583 17.35 39.375C16.65 39.7917 15.8667 40 15 40ZM11 33.7H19V31.9H11V33.7ZM11 29.9H19V28H11V29.9ZM16.5 24V18.6L19.85 15.25C20.15 14.95 20.3 14.6 20.3 14.2C20.3 13.8 20.15 13.45 19.85 13.15C19.55 12.85 19.2 12.7 18.8 12.7C18.4 12.7 18.05 12.85 17.75 13.15L15 15.9L12.25 13.15C11.95 12.85 11.6 12.7 11.2 12.7C10.8 12.7 10.45 12.85 10.15 13.15C9.85 13.45 9.7 13.8 9.7 14.2C9.7 14.6 9.85 14.95 10.15 15.25L13.5 18.6V24H16.5Z" fill="#F6FD9C"/>
</svg>
