<svg width="41" height="40" viewBox="0 0 41 40" fill="none" xmlns="http://www.w3.org/2000/svg">
<path d="M20.5996 36.05C19.4996 36.05 18.5579 35.65 17.7746 34.85C16.9913 34.05 16.5996 33.1 16.5996 32C16.5996 30.9 16.9913 29.9583 17.7746 29.175C18.5579 28.3917 19.4996 28 20.5996 28L21.7996 26.85C22.0663 26.5833 22.3746 26.375 22.7246 26.225C23.0746 26.075 23.4329 26 23.7996 26C24.5663 26 25.2246 26.2833 25.7746 26.85C26.3246 27.4167 26.5996 28.0833 26.5996 28.85V29.7C26.5996 30.3667 26.8163 30.9167 27.2496 31.35C27.6829 31.7833 28.2329 32 28.8996 32C29.3996 32 29.8496 31.85 30.2496 31.55C30.6496 31.25 30.9329 30.8667 31.0996 30.4L31.6996 28.75C31.9996 27.95 32.4829 27.2917 33.1496 26.775C33.8163 26.2583 34.5829 26 35.4496 26C35.8163 25.0667 36.1079 24.1 36.3246 23.1C36.5413 22.1 36.6496 21.0667 36.6496 20C36.6496 17.0333 35.9079 14.325 34.4246 11.875C32.9413 9.425 30.9996 7.5 28.5996 6.1V8C28.5996 9.1 28.2079 10.0417 27.4246 10.825C26.6413 11.6083 25.6996 12 24.5996 12H22.5996V16C22.5996 16.5667 22.4079 17.0417 22.0246 17.425C21.6413 17.8083 21.1663 18 20.5996 18H18.5996V21.4C18.5996 22.1333 18.3496 22.75 17.8496 23.25C17.3496 23.75 16.7329 24 15.9996 24C15.5329 24 15.1079 23.9 14.7246 23.7C14.3413 23.5 14.0329 23.2167 13.7996 22.85L10.5996 18H8.59961V20C8.59961 21.0333 8.24961 21.9167 7.54961 22.65C6.84961 23.3833 6.01628 23.8167 5.04961 23.95C5.91628 27.4167 7.79128 30.3 10.6746 32.6C13.5579 34.9 16.8663 36.05 20.5996 36.05ZM24.5996 24C24.0329 24 23.5579 23.8083 23.1746 23.425C22.7913 23.0417 22.5996 22.5667 22.5996 22C22.5996 21.4333 22.7913 20.9583 23.1746 20.575C23.5579 20.1917 24.0329 20 24.5996 20H26.5996C27.1663 20 27.6413 20.1917 28.0246 20.575C28.4079 20.9583 28.5996 21.4333 28.5996 22C28.5996 22.5667 28.4079 23.0417 28.0246 23.425C27.6413 23.8083 27.1663 24 26.5996 24H24.5996ZM29.2496 18C28.5829 18 28.0579 17.7417 27.6746 17.225C27.2913 16.7083 27.1996 16.1333 27.3996 15.5L28.1496 13.3C28.2829 12.9 28.5163 12.5833 28.8496 12.35C29.1829 12.1167 29.5496 12 29.9496 12C30.6163 12 31.1413 12.2583 31.5246 12.775C31.9079 13.2917 31.9996 13.8667 31.7996 14.5L31.0496 16.7C30.9163 17.1 30.6829 17.4167 30.3496 17.65C30.0163 17.8833 29.6496 18 29.2496 18ZM20.5996 40C17.8329 40 15.2329 39.475 12.7996 38.425C10.3663 37.375 8.24961 35.95 6.44961 34.15C4.64961 32.35 3.22461 30.2333 2.17461 27.8C1.12461 25.3667 0.599609 22.7667 0.599609 20C0.599609 17.2333 1.12461 14.6333 2.17461 12.2C3.22461 9.76667 4.64961 7.65 6.44961 5.85C8.24961 4.05 10.3663 2.625 12.7996 1.575C15.2329 0.525 17.8329 0 20.5996 0C23.3663 0 25.9663 0.525 28.3996 1.575C30.8329 2.625 32.9496 4.05 34.7496 5.85C36.5496 7.65 37.9746 9.76667 39.0246 12.2C40.0746 14.6333 40.5996 17.2333 40.5996 20C40.5996 22.7667 40.0746 25.3667 39.0246 27.8C37.9746 30.2333 36.5496 32.35 34.7496 34.15C32.9496 35.95 30.8329 37.375 28.3996 38.425C25.9663 39.475 23.3663 40 20.5996 40Z" fill="#B1FFDD"/>
</svg>
