<svg width="40" height="41" viewBox="0 0 40 41" fill="none" xmlns="http://www.w3.org/2000/svg">
<path d="M8.24961 20.2999C9.11628 18.0999 10.1579 15.9832 11.3746 13.9499C12.5913 11.9166 13.9663 9.9999 15.4996 8.1999L12.8996 7.6499C12.2329 7.51657 11.5829 7.5499 10.9496 7.7499C10.3163 7.9499 9.76628 8.28323 9.29961 8.7499L2.99961 15.0499C2.49961 15.5499 2.30794 16.1499 2.42461 16.8499C2.54128 17.5499 2.93294 18.0332 3.59961 18.2999L8.24961 20.2999ZM37.6496 0.7999C34.1163 0.633234 30.7579 1.31657 27.5746 2.8499C24.3913 4.38323 21.5496 6.3999 19.0496 8.8999C17.4496 10.4999 16.0413 12.2332 14.8246 14.0999C13.6079 15.9666 12.5496 17.9332 11.6496 19.9999C11.4829 20.4332 11.3996 20.8749 11.3996 21.3249C11.3996 21.7749 11.5663 22.1666 11.8996 22.4999L18.1496 28.7499C18.4829 29.0832 18.8746 29.2499 19.3246 29.2499C19.7746 29.2499 20.2163 29.1666 20.6496 28.9999C22.7163 28.0999 24.6829 27.0416 26.5496 25.8249C28.4163 24.6082 30.1496 23.1999 31.7496 21.5999C34.2496 19.0999 36.2663 16.2582 37.7996 13.0749C39.3329 9.89157 40.0163 6.53323 39.8496 2.9999C39.8496 2.73323 39.7829 2.46657 39.6496 2.1999C39.5163 1.93323 39.3496 1.6999 39.1496 1.4999C38.9496 1.2999 38.7163 1.13323 38.4496 0.9999C38.1829 0.866567 37.9163 0.7999 37.6496 0.7999ZM24.9496 15.6999C24.1829 14.9332 23.7996 13.9916 23.7996 12.8749C23.7996 11.7582 24.1829 10.8166 24.9496 10.0499C25.7163 9.28323 26.6579 8.8999 27.7746 8.8999C28.8913 8.8999 29.8329 9.28323 30.5996 10.0499C31.3663 10.8166 31.7496 11.7582 31.7496 12.8749C31.7496 13.9916 31.3663 14.9332 30.5996 15.6999C29.8329 16.4666 28.8913 16.8499 27.7746 16.8499C26.6579 16.8499 25.7163 16.4666 24.9496 15.6999ZM20.3496 32.3999L22.3496 37.0499C22.6163 37.7166 23.0996 38.1166 23.7996 38.2499C24.4996 38.3832 25.0996 38.1999 25.5996 37.6999L31.8996 31.3999C32.3663 30.9332 32.6996 30.3749 32.8996 29.7249C33.0996 29.0749 33.1329 28.4166 32.9996 27.7499L32.4996 25.1499C30.6663 26.6832 28.7413 28.0582 26.7246 29.2749C24.7079 30.4916 22.5829 31.5332 20.3496 32.3999ZM4.09961 28.0999C5.26628 26.9332 6.68294 26.3416 8.34961 26.3249C10.0163 26.3082 11.4329 26.8832 12.5996 28.0499C13.7663 29.2166 14.3496 30.6332 14.3496 32.2999C14.3496 33.9666 13.7663 35.3832 12.5996 36.5499C10.9996 38.1499 9.10794 39.0999 6.92461 39.3999C4.74128 39.6999 2.54961 39.9999 0.349609 40.2999C0.649609 38.0999 0.957943 35.9082 1.27461 33.7249C1.59128 31.5416 2.53294 29.6666 4.09961 28.0999Z" fill="#AAE7FF"/>
</svg>
